<mxfile host="65bd71144e">
    <diagram id="ze-yW64F1dpl36opvfJw" name="Page-1">
        <mxGraphModel dx="817" dy="626" grid="1" gridSize="10" guides="1" tooltips="1" connect="1" arrows="1" fold="1" page="1" pageScale="1" pageWidth="827" pageHeight="1169" math="0" shadow="0">
            <root>
                <mxCell id="0"/>
                <mxCell id="1" parent="0"/>
                <mxCell id="45" style="edgeStyle=none;html=1;exitX=0.5;exitY=1;exitDx=0;exitDy=0;entryX=0.5;entryY=0;entryDx=0;entryDy=0;" edge="1" parent="1" source="2" target="6">
                    <mxGeometry relative="1" as="geometry"/>
                </mxCell>
                <mxCell id="2" value="epub" style="rounded=0;whiteSpace=wrap;html=1;" parent="1" vertex="1">
                    <mxGeometry x="608.75" y="90" width="70" height="40" as="geometry"/>
                </mxCell>
                <mxCell id="10" value="" style="edgeStyle=entityRelationEdgeStyle;html=1;entryX=0;entryY=0.25;entryDx=0;entryDy=0;exitX=1;exitY=0.5;exitDx=0;exitDy=0;" parent="1" source="6" target="8" edge="1">
                    <mxGeometry relative="1" as="geometry"/>
                </mxCell>
                <mxCell id="12" style="edgeStyle=entityRelationEdgeStyle;html=1;" parent="1" source="6" target="8" edge="1">
                    <mxGeometry relative="1" as="geometry">
                        <mxPoint x="510" y="350" as="targetPoint"/>
                    </mxGeometry>
                </mxCell>
                <mxCell id="13" style="edgeStyle=entityRelationEdgeStyle;html=1;entryX=0;entryY=0.75;entryDx=0;entryDy=0;" parent="1" source="6" target="8" edge="1">
                    <mxGeometry relative="1" as="geometry">
                        <mxPoint x="510" y="380" as="targetPoint"/>
                    </mxGeometry>
                </mxCell>
                <mxCell id="47" style="edgeStyle=none;html=1;exitX=0.5;exitY=1;exitDx=0;exitDy=0;" edge="1" parent="1" source="6" target="18">
                    <mxGeometry relative="1" as="geometry"/>
                </mxCell>
                <mxCell id="6" value="&lt;b&gt;List of files&lt;br&gt;&lt;/b&gt;&lt;br&gt;toc&lt;br&gt;&lt;b&gt;dir/1.html&lt;/b&gt;&lt;br&gt;dir/2.html&lt;br&gt;dir/3.html&lt;br&gt;dir/4.html&lt;br&gt;dit/5.html" style="text;html=1;strokeColor=none;fillColor=#dae8fc;align=left;verticalAlign=top;whiteSpace=wrap;rounded=0;labelBackgroundColor=none;spacingLeft=3;" parent="1" vertex="1">
                    <mxGeometry x="510" y="190" width="90" height="150" as="geometry"/>
                </mxCell>
                <mxCell id="46" style="edgeStyle=none;html=1;exitX=0.5;exitY=1;exitDx=0;exitDy=0;entryX=0.5;entryY=0;entryDx=0;entryDy=0;" edge="1" parent="1" source="8" target="18">
                    <mxGeometry relative="1" as="geometry"/>
                </mxCell>
                <mxCell id="8" value="chanks of &lt;b&gt;dir/1.html&lt;br&gt;&lt;br&gt;0&lt;br&gt;1&lt;br&gt;2&lt;br&gt;3&lt;br&gt;4&lt;br&gt;&lt;/b&gt;" style="text;html=1;strokeColor=none;fillColor=#dae8fc;align=left;verticalAlign=top;whiteSpace=wrap;rounded=0;labelBackgroundColor=none;spacingLeft=3;" parent="1" vertex="1">
                    <mxGeometry x="668.75" y="190" width="80" height="170" as="geometry"/>
                </mxCell>
                <mxCell id="18" value="&lt;b&gt;Results&lt;br&gt;&lt;br&gt;epubPath: dir/1.html&lt;br&gt;epubSelector: p,h1&lt;br&gt;epubIndex: 3&lt;br&gt;text: blablabla&lt;br&gt;&lt;br&gt;&lt;/b&gt;" style="text;html=1;strokeColor=none;fillColor=#dae8fc;align=left;verticalAlign=top;whiteSpace=wrap;rounded=0;labelBackgroundColor=none;spacingLeft=3;" parent="1" vertex="1">
                    <mxGeometry x="558.75" y="400" width="150" height="170" as="geometry"/>
                </mxCell>
                <mxCell id="34" style="edgeStyle=orthogonalEdgeStyle;sketch=0;html=1;exitX=0.5;exitY=1;exitDx=0;exitDy=0;shadow=0;strokeColor=#66B2FF;fontColor=#FF6666;elbow=vertical;" parent="1" source="19" target="20" edge="1">
                    <mxGeometry relative="1" as="geometry"/>
                </mxCell>
                <mxCell id="44" style="edgeStyle=orthogonalEdgeStyle;sketch=0;jumpStyle=none;html=1;exitX=0.5;exitY=1;exitDx=0;exitDy=0;entryX=0;entryY=0.5;entryDx=0;entryDy=0;shadow=0;strokeColor=#66B2FF;strokeWidth=1;fontColor=#FF99CC;elbow=vertical;startSize=14;" parent="1" source="19" target="27" edge="1">
                    <mxGeometry relative="1" as="geometry">
                        <Array as="points">
                            <mxPoint x="143" y="130"/>
                            <mxPoint x="40" y="130"/>
                            <mxPoint x="40" y="475"/>
                        </Array>
                    </mxGeometry>
                </mxCell>
                <mxCell id="19" value="epub" style="rounded=0;whiteSpace=wrap;html=1;fillColor=#dae8fc;strokeColor=none;" parent="1" vertex="1">
                    <mxGeometry x="116.25" y="80" width="52.5" height="30" as="geometry"/>
                </mxCell>
                <mxCell id="29" style="edgeStyle=orthogonalEdgeStyle;html=1;elbow=vertical;strokeColor=#FF99CC;shadow=0;jumpStyle=none;dashed=1;strokeWidth=2;" parent="1" source="20" edge="1">
                    <mxGeometry relative="1" as="geometry">
                        <mxPoint x="270" y="210" as="targetPoint"/>
                    </mxGeometry>
                </mxCell>
                <mxCell id="30" value="if err&amp;nbsp; return" style="edgeLabel;html=1;align=center;verticalAlign=middle;resizable=0;points=[];fontColor=#FF99CC;" parent="29" vertex="1" connectable="0">
                    <mxGeometry x="-0.0315" y="-1" relative="1" as="geometry">
                        <mxPoint x="-10" y="-16" as="offset"/>
                    </mxGeometry>
                </mxCell>
                <mxCell id="35" style="edgeStyle=orthogonalEdgeStyle;sketch=0;html=1;exitX=0.5;exitY=1;exitDx=0;exitDy=0;shadow=0;strokeColor=#66B2FF;fontColor=#FF6666;elbow=vertical;" parent="1" source="20" target="24" edge="1">
                    <mxGeometry relative="1" as="geometry"/>
                </mxCell>
                <mxCell id="20" value="GenerateJobs" style="text;html=1;strokeColor=none;fillColor=#FF99FF;align=center;verticalAlign=middle;whiteSpace=wrap;rounded=0;labelBackgroundColor=none;arcSize=50;fillStyle=auto;shadow=0;sketch=1;curveFitting=1;jiggle=2;imageAspect=0;" parent="1" vertex="1">
                    <mxGeometry x="85" y="160" width="115" height="20" as="geometry"/>
                </mxCell>
                <mxCell id="36" style="edgeStyle=orthogonalEdgeStyle;sketch=0;html=1;exitX=0.5;exitY=1;exitDx=0;exitDy=0;entryX=0.5;entryY=0;entryDx=0;entryDy=0;shadow=0;strokeColor=#66B2FF;fontColor=#FF6666;elbow=vertical;" parent="1" source="24" target="25" edge="1">
                    <mxGeometry relative="1" as="geometry"/>
                </mxCell>
                <mxCell id="24" value="jobs" style="rounded=0;whiteSpace=wrap;html=1;fillColor=#dae8fc;strokeColor=none;" parent="1" vertex="1">
                    <mxGeometry x="116.25" y="230" width="52.5" height="30" as="geometry"/>
                </mxCell>
                <mxCell id="37" style="edgeStyle=orthogonalEdgeStyle;sketch=0;html=1;exitX=0.5;exitY=1;exitDx=0;exitDy=0;shadow=0;strokeColor=#66B2FF;fontColor=#FF6666;elbow=vertical;" parent="1" source="25" target="26" edge="1">
                    <mxGeometry relative="1" as="geometry"/>
                </mxCell>
                <mxCell id="25" value="Process jobs" style="text;html=1;strokeColor=none;fillColor=#FF99FF;align=center;verticalAlign=middle;whiteSpace=wrap;rounded=0;labelBackgroundColor=none;arcSize=50;fillStyle=auto;shadow=0;sketch=1;curveFitting=1;jiggle=2;" parent="1" vertex="1">
                    <mxGeometry x="83.75" y="310" width="117.5" height="20" as="geometry"/>
                </mxCell>
                <mxCell id="38" style="edgeStyle=orthogonalEdgeStyle;sketch=0;html=1;exitX=0.5;exitY=1;exitDx=0;exitDy=0;shadow=0;strokeColor=#66B2FF;fontColor=#FF6666;elbow=vertical;" parent="1" source="26" target="27" edge="1">
                    <mxGeometry relative="1" as="geometry"/>
                </mxCell>
                <mxCell id="26" value="processed jobs" style="rounded=0;whiteSpace=wrap;html=1;fillColor=#dae8fc;strokeColor=none;" parent="1" vertex="1">
                    <mxGeometry x="81.88" y="380" width="121.25" height="30" as="geometry"/>
                </mxCell>
                <mxCell id="39" style="edgeStyle=orthogonalEdgeStyle;sketch=0;html=1;exitX=0.5;exitY=1;exitDx=0;exitDy=0;shadow=0;strokeColor=#66B2FF;fontColor=#FF6666;elbow=vertical;" parent="1" source="27" target="28" edge="1">
                    <mxGeometry relative="1" as="geometry"/>
                </mxCell>
                <mxCell id="27" value="Generate epub" style="text;html=1;strokeColor=none;fillColor=#FF99FF;align=center;verticalAlign=middle;whiteSpace=wrap;rounded=0;labelBackgroundColor=none;arcSize=50;fillStyle=auto;shadow=0;sketch=1;curveFitting=1;jiggle=2;" parent="1" vertex="1">
                    <mxGeometry x="90" y="470" width="105" height="30" as="geometry"/>
                </mxCell>
                <mxCell id="28" value="new epub" style="rounded=0;whiteSpace=wrap;html=1;fillColor=#dae8fc;strokeColor=none;" parent="1" vertex="1">
                    <mxGeometry x="81.25" y="550" width="122.5" height="20" as="geometry"/>
                </mxCell>
                <mxCell id="40" style="edgeStyle=orthogonalEdgeStyle;html=1;elbow=vertical;strokeColor=#FF99CC;shadow=0;jumpStyle=none;dashed=1;strokeWidth=2;" parent="1" source="25" edge="1">
                    <mxGeometry relative="1" as="geometry">
                        <mxPoint x="271.25" y="355" as="targetPoint"/>
                        <mxPoint x="201.25" y="320" as="sourcePoint"/>
                    </mxGeometry>
                </mxCell>
                <mxCell id="41" value="if err&amp;nbsp; return" style="edgeLabel;html=1;align=center;verticalAlign=middle;resizable=0;points=[];fontColor=#FF99CC;" parent="40" vertex="1" connectable="0">
                    <mxGeometry x="-0.0315" y="-1" relative="1" as="geometry">
                        <mxPoint x="-10" y="-16" as="offset"/>
                    </mxGeometry>
                </mxCell>
                <mxCell id="42" style="edgeStyle=orthogonalEdgeStyle;html=1;elbow=vertical;strokeColor=#FF99CC;shadow=0;jumpStyle=none;dashed=1;strokeWidth=2;exitX=1;exitY=0.5;exitDx=0;exitDy=0;" parent="1" source="27" edge="1">
                    <mxGeometry relative="1" as="geometry">
                        <mxPoint x="280" y="520" as="targetPoint"/>
                        <mxPoint x="230" y="480" as="sourcePoint"/>
                        <Array as="points">
                            <mxPoint x="280" y="475"/>
                        </Array>
                    </mxGeometry>
                </mxCell>
                <mxCell id="43" value="if err&amp;nbsp; return" style="edgeLabel;html=1;align=center;verticalAlign=middle;resizable=0;points=[];fontColor=#FF99CC;" parent="42" vertex="1" connectable="0">
                    <mxGeometry x="-0.0315" y="-1" relative="1" as="geometry">
                        <mxPoint x="-10" y="-16" as="offset"/>
                    </mxGeometry>
                </mxCell>
                <mxCell id="48" value="Process file" style="text;html=1;strokeColor=none;fillColor=none;align=center;verticalAlign=middle;whiteSpace=wrap;rounded=0;fontSize=19;fontStyle=1" vertex="1" parent="1">
                    <mxGeometry x="90" y="20" width="120" height="30" as="geometry"/>
                </mxCell>
                <mxCell id="49" value="Generate jobs" style="text;html=1;strokeColor=none;fillColor=none;align=center;verticalAlign=middle;whiteSpace=wrap;rounded=0;fontSize=19;fontStyle=1" vertex="1" parent="1">
                    <mxGeometry x="470" y="20" width="250" height="30" as="geometry"/>
                </mxCell>
            </root>
        </mxGraphModel>
    </diagram>
</mxfile>